<svg width="16" height="20" viewBox="0 0 16 20" fill="none" xmlns="http://www.w3.org/2000/svg">
<path d="M3.81264 4.6252H9.81264C10.711 4.6252 11.6094 5.1796 11.6094 6.4688V15.758H13.5782C15.1874 15.758 15.9998 14.9296 15.9998 13.3048V2.4532C15.9998 0.828 15.1874 0 13.5782 0H6.23424C4.62504 0 3.81264 0.8204 3.81264 2.4532V4.6252ZM7.49984 2.2188V2.0548C7.49984 1.8124 7.65624 1.5936 7.99984 1.5936H11.8126C12.1486 1.5936 12.3126 1.8124 12.3126 2.0548V2.2188C12.3126 2.4532 12.1486 2.6796 11.8126 2.6796H7.99984C7.65624 2.6796 7.49984 2.4532 7.49984 2.2188ZM0.0234375 17.2032C0.0234375 18.836 0.828237 19.6564 2.44544 19.6564H9.78904C11.4062 19.6564 12.211 18.828 12.211 17.2032V6.3516C12.211 4.7188 11.4062 3.8984 9.78904 3.8984H2.44544C0.828237 3.8984 0.0234375 4.7108 0.0234375 6.3516V17.2032ZM1.28144 17.1796V6.3672C1.28144 5.5936 1.69544 5.1564 2.49984 5.1564H9.72664C10.5314 5.1564 10.953 5.5936 10.953 6.3672V17.1796C10.953 17.9608 10.5314 18.3984 9.72664 18.3984H2.49984C1.69544 18.3984 1.28144 17.9608 1.28144 17.1796ZM9.44544 11.7656C9.44544 12.0548 9.24224 12.2656 8.95304 12.2656H5.57024L4.17184 12.2108L4.98424 12.9064L5.74984 13.6564C5.84384 13.75 5.89864 13.8672 5.89864 14.008C5.89864 14.2736 5.69544 14.4924 5.42184 14.4924C5.28904 14.4924 5.17184 14.4376 5.08584 14.3516L2.89864 12.1564C2.77344 12.0312 2.70304 11.922 2.70304 11.7656C2.70304 11.6328 2.76584 11.5236 2.89864 11.3908L5.08584 9.1876C5.17184 9.1016 5.28904 9.0548 5.42184 9.0548C5.69544 9.0548 5.89864 9.2656 5.89864 9.5312C5.89864 9.672 5.83584 9.7892 5.74984 9.8828L4.98424 10.6408L4.17184 11.328L5.57024 11.2812H8.95304C9.23424 11.2812 9.44544 11.4764 9.44544 11.7656Z" fill="#3366FF"/>
</svg>
